<?xml version="1.0" standalone="no"?>
<!DOCTYPE svg PUBLIC "-//W3C//DTD SVG 20010904//EN"
 "http://www.w3.org/TR/2001/REC-SVG-20010904/DTD/svg10.dtd">
<svg version="1.0" xmlns="http://www.w3.org/2000/svg"
 width="192.000000pt" height="192.000000pt" viewBox="0 0 192.000000 192.000000"
 preserveAspectRatio="xMidYMid meet">
<metadata>
Created by potrace 1.14, written by Peter Selinger 2001-2017
</metadata>
<g transform="translate(0.000000,192.000000) scale(0.100000,-0.100000)"
fill="#000000" stroke="none">
<path d="M352 1899 c-50 -25 -99 -80 -112 -129 -16 -57 -12 -1438 4 -1475 36
-84 116 -135 212 -135 l54 0 0 -80 c0 -93 9 -100 65 -46 l35 34 34 -34 c55
-55 66 -48 66 46 l0 80 490 0 490 0 0 880 0 880 -647 0 c-640 0 -649 0 -691
-21z"/>
</g>
</svg>
